<svg version="1.1" id="Layer_1" xmlns="http://www.w3.org/2000/svg" xmlns:xlink="http://www.w3.org/1999/xlink" x="0px" y="0px"
	 viewBox="0 0 738 852" style="enable-background:new 0 0 738 852;" xml:space="preserve">
<style type="text/css">
	.st0{fill:#141227;}
	.st1{fill:#DCA10B;}
	.st4733{opacity:0.8;fill:#FCF0BE;enable-background:new    ;}
	.st4734{fill:#FCF0BE;}
	.st4732{fill:#FFF9C2;}
	.st4735{fill:none;}
	.st4736{fill:#404040;}
	.st3555{fill:#FF0000;}
</style>
<polygon class="st0" points="369,29 369,29 23,228.8 23,628.3 369,828 715,628.3 715,228.8 "/>
<polygon class="st4733" points="127,202.7 127,198.1 123,195.9 119,198.1 119,202.7 123,205 "/>
<polygon class="st4734" points="236.9,226.5 236.9,231.1 240.9,233.4 244.9,231.1 244.9,226.6 240.9,224.3 "/>
<polygon class="st4733" points="316.2,154.3 316.2,149.7 312.2,147.5 308.2,149.7 308.2,154.3 312.2,156.6 "/>
<polygon class="st4734" points="328.2,177.2 328.2,174.8 326.2,173.7 324.1,174.8 324.1,177.2 326.2,178.4 "/>
<polygon class="st4734" points="217.2,148.8 217.2,145.7 214.6,144.2 211.9,145.7 211.9,148.8 214.6,150.2 "/>
<polygon class="st4734" points="79.1,231.1 79.1,226.5 75.2,224.3 71.2,226.5 71.2,231.1 75.2,233.4 "/>
<polygon class="st4734" points="93,269.5 93,264.9 89.1,262.7 85.1,264.9 85.1,269.5 89.1,271.8 "/>
<polygon class="st4734" points="309.5,366.9 309.5,371.5 313.5,373.7 317.5,371.5 317.5,366.9 313.5,364.6 "/>
<polygon class="st4734" points="45.1,304.4 45.1,306.9 47.2,308.1 49.3,306.9 49.3,304.4 47.2,303.2 "/>
<polygon class="st4734" points="58.9,436.7 58.9,442.6 64,445.5 69,442.6 69,436.7 64,433.8 "/>
<polygon class="st4734" points="63.2,282.8 63.2,280.5 61.2,279.3 59.2,280.5 59.2,282.8 61.2,284 "/>
<polygon class="st4733" points="263.5,386.8 259.5,384.5 255.5,386.8 255.5,391.3 259.5,393.6 263.5,391.4 "/>
<polygon class="st4733" points="144.1,371.5 144.1,366.9 140.1,364.6 136.1,366.9 136.1,371.5 140.1,373.7 "/>
<polygon class="st4734" points="124.8,328.2 124.8,330.6 126.9,331.8 128.9,330.6 128.9,328.2 126.9,327.1 "/>
<polygon class="st4734" points="160.5,375.5 160.5,382.7 166.7,386.2 172.8,382.7 172.8,375.5 166.7,372 "/>
<polygon class="st4734" points="86.5,353.3 86.5,345.3 79.7,341.3 72.7,345.3 72.7,353.3 79.7,357.3 "/>
<polygon class="st4734" points="395.9,100.7 395.9,105.2 399.9,107.5 403.8,105.2 403.8,100.7 399.9,98.4 "/>
<polygon class="st4733" points="469.5,133.3 469.5,137.9 473.5,140.1 477.5,137.9 477.5,133.3 473.5,131 "/>
<polygon class="st4734" points="555.2,352.4 555.2,357 559.2,359.2 563.2,357 563.2,352.4 559.2,350.1 "/>
<polygon class="st4733" points="581.2,221.5 581.2,216.9 577.2,214.7 573.2,216.9 573.2,221.5 577.2,223.8 "/>
<polygon class="st4734" points="603,246.9 603,249.2 605.1,250.4 607.1,249.2 607.1,246.9 605.1,245.7 "/>
<polygon class="st4734" points="551.9,206.4 551.9,203.3 549.3,201.8 546.7,203.3 546.7,206.4 549.3,207.9 "/>
<polygon class="st4734" points="515.3,179.6 515.3,175 511.4,172.8 507.4,175 507.4,179.6 511.4,181.9 "/>
<polygon class="st4734" points="423.8,226.5 423.8,231.1 427.8,233.4 431.7,231.1 431.7,226.5 427.8,224.3 "/>
<polygon class="st4734" points="445.3,181.9 445.3,189.3 451.7,193 458,189.3 458,181.9 451.7,178.2 "/>
<polygon class="st4734" points="463.9,237.4 463.9,239.4 465.6,240.4 467.3,239.4 467.3,237.4 465.6,236.4 "/>
<polygon class="st4733" points="427.8,159.1 427.8,154.5 423.8,152.3 419.8,154.5 419.8,159.1 423.8,161.4 "/>
<polygon class="st4734" points="368,144.1 368,148.7 372,151 375.9,148.7 375.9,144.1 372,141.9 "/>
<polygon class="st4734" points="282.3,141.3 282.3,143.6 284.3,144.7 286.3,143.6 286.3,141.3 284.3,140.1 "/>
<polygon class="st4734" points="370.6,85.5 370.6,82.4 368,80.9 365.3,82.4 365.3,85.5 368,87.1 "/>
<polygon class="st4734" points="310.9,90.3 310.9,96.8 316.5,100.1 322.1,96.8 322.1,90.3 316.5,87.1 "/>
<polygon class="st4734" points="578.6,323.5 578.6,315.5 571.8,311.5 564.8,315.5 564.8,323.5 571.8,327.5 "/>
<polygon class="st4733" points="552,162.6 552,159.1 549,157.3 545.9,159 545.9,162.6 549,164.3 "/>
<polygon class="st4734" points="587.2,192.9 587.2,197.5 591.2,199.8 595.1,197.5 595.1,192.9 591.2,190.7 "/>
<polygon class="st4734" points="639,326.5 639,319.9 633.4,316.6 627.6,319.9 627.6,326.5 633.4,329.8 "/>
<polygon class="st4733" points="646.9,260.2 646.9,255.6 643,253.3 639,255.6 639,260.2 643,262.4 "/>
<polygon class="st4733" points="688.7,312.1 686,313.7 686,316.8 688.7,318.4 691.5,316.8 691.5,313.7 "/>
<polygon class="st4734" points="667.1,291.5 667.1,300.5 674.9,305 682.5,300.5 682.5,291.5 674.9,287.1 "/>
<polygon class="st4734" points="577.2,274.5 577.2,279.1 581.2,281.4 585.1,279.1 585.1,274.5 581.2,272.3 "/>
<polygon class="st4734" points="669.9,339.5 669.9,336.2 667.1,334.5 664.2,336.2 664.2,339.5 667.1,341.1 "/>
<polygon class="st4734" points="672.8,460.8 676.8,463.1 680.7,460.8 680.7,456.2 676.8,454 672.8,456.2 "/>
<polygon class="st4734" points="664.8,226.3 664.8,221.8 660.8,219.5 656.8,221.7 656.8,226.3 660.8,228.6 "/>
<polygon class="st4733" points="598.2,467.6 598.2,471.7 601.8,473.7 605.3,471.7 605.3,467.6 601.8,465.6 "/>
<polygon class="st4733" points="624.7,558.9 624.7,563.5 628.7,565.8 632.7,563.5 632.7,559 628.7,556.7 "/>
<polygon class="st4733" points="616.8,335.8 616.8,332.6 614.1,331.1 611.3,332.6 611.3,335.7 614.1,337.3 "/>
<polygon class="st4734" points="658.4,373.3 658.4,375.6 660.3,376.7 662.2,375.6 662.2,373.3 660.3,372.2 "/>
<polygon class="st4734" points="614,386.8 614,391.4 618,393.7 621.9,391.4 621.9,386.8 618,384.6 "/>
<polygon class="st4734" points="587.4,431.4 587.4,434.7 590.2,436.4 593.1,434.7 593.1,431.4 590.2,429.8 "/>
<polygon class="st4734" points="587.2,398.7 587.2,394.1 583.3,391.9 579.3,394.1 579.3,398.7 583.3,401 "/>
<polygon class="st4733" points="672,408.8 668,406.5 664,408.8 664,413.4 668,415.6 672,413.4 "/>
<polygon class="st4734" points="650.9,419.7 650.9,417.1 648.8,415.9 646.6,417.1 646.6,419.7 648.8,420.9 "/>
<polygon class="st4734" points="637.1,361.2 637.1,365.8 641.1,368 645,365.8 645,361.2 641.1,358.9 "/>
<polygon class="st4733" points="668.9,546.3 668.9,554.2 675.7,558 682.5,554.2 682.5,546.4 675.7,542.5 "/>
<polygon class="st4734" points="648.7,496.7 648.7,501.3 652.7,503.5 656.5,501.3 656.5,496.7 652.7,494.4 "/>
<polygon class="st4733" points="676.7,592.5 676.7,595.8 679.6,597.5 682.4,595.9 682.4,592.6 679.6,590.9 "/>
<polygon class="st4734" points="513.1,420.5 513.1,425.1 517.1,427.4 521,425.1 521,420.5 517.1,418.2 "/>
<polygon class="st4734" points="552.9,430.5 552.9,435.1 556.9,437.4 560.8,435.1 560.8,430.5 556.9,428.2 "/>
<polygon class="st4733" points="342.9,378.5 342.9,383.1 346.9,385.4 350.8,383.1 350.8,378.5 346.9,376.2 "/>
<polygon class="st4734" points="438.6,396.9 438.6,399.4 440.8,400.6 442.9,399.4 442.9,396.9 440.8,395.6 "/>
<polygon class="st4734" points="324.2,212.1 324.2,216.7 328.2,219 332.1,216.7 332.1,212.1 328.2,209.9 "/>
<polygon class="st4733" points="282.3,120.7 282.3,125.3 286.3,127.5 290.3,125.3 290.3,120.7 286.3,118.4 "/>
<polygon class="st4733" points="203.5,211.3 203.5,208 200.6,206.4 197.8,208 197.8,211.3 200.6,212.9 "/>
<polygon class="st4733" points="441.7,109.3 437.7,107 433.7,109.3 433.7,113.9 437.7,116.1 441.7,113.9 "/>
<polygon class="st4734" points="344,125.5 344,120.9 340.1,118.7 336.1,120.9 336.1,125.5 340.1,127.8 "/>
<polygon class="st4734" points="361.4,207.6 361.4,212.2 365.4,214.4 369.3,212.2 369.3,207.6 365.4,205.3 "/>
<polygon class="st4733" points="391.9,212.1 391.9,216.7 395.9,219 399.9,216.7 399.9,212.1 395.9,209.9 "/>
<polygon class="st4734" points="138.4,282.7 138.4,290.1 144.9,293.8 151.2,290.1 151.2,282.7 144.9,279 "/>
<polygon class="st4734" points="160.5,253.8 160.5,251.8 158.8,250.8 157.1,251.8 157.1,253.8 158.8,254.8 "/>
<polygon class="st4734" points="183.7,231.9 183.7,235.4 186.7,237.1 189.6,235.4 189.6,231.9 186.7,230.2 "/>
<polygon class="st4734" points="104.9,234.9 104.9,238.4 107.9,240.1 110.8,238.4 110.8,234.9 107.9,233.2 "/>
<polygon class="st4734" points="122.9,437 122.9,441.5 126.9,443.8 130.8,441.5 130.8,437 126.9,434.7 "/>
<polygon class="st4734" points="262.5,469.1 262.5,472.2 265.1,473.7 267.7,472.2 267.7,469.1 265.1,467.7 "/>
<polygon class="st4733" points="215.7,356.9 215.7,361.5 219.7,363.8 223.7,361.5 223.7,357 219.7,354.7 "/>
<polygon class="st4733" points="89.9,321.1 89.9,317.9 87,316.2 84.2,317.8 84.2,321.1 87,322.8 "/>
<polygon class="st4734" points="79.6,622.4 79.6,624.7 81.6,625.8 83.5,624.7 83.5,622.4 81.6,621.3 "/>
<polygon class="st4734" points="87.1,489.1 87.1,484.5 83.2,482.2 79.2,484.5 79.2,489.1 83.2,491.4 "/>
<polygon class="st4733" points="232.9,507.2 232.9,511.8 236.9,514.1 240.9,511.8 240.9,507.2 236.9,505 "/>
<polygon class="st4734" points="196.2,530.7 196.2,535.2 200.2,537.5 204.1,535.2 204.1,530.7 200.2,528.4 "/>
<polygon class="st4734" points="74.2,561.7 74.2,571.3 82.5,576 90.7,571.3 90.7,561.7 82.5,557 "/>
<polygon class="st4734" points="200,441.6 200,437 196,434.7 192,437 192,441.5 196,443.8 "/>
<polygon class="st4734" points="238.6,434.3 238.6,437.2 241.1,438.6 243.5,437.2 243.5,434.3 241.1,432.9 "/>
<polygon class="st4734" points="92.2,383.6 92.2,386.4 94.6,387.8 97,386.4 97,383.6 94.6,382.2 "/>
<polygon class="st4733" points="165.3,460.8 165.3,465.4 169.3,467.7 173.3,465.4 173.3,460.8 169.3,458.5 "/>
<polygon class="st4734" points="136.4,496.2 136.4,503.4 142.6,507 148.7,503.4 148.7,496.2 142.6,492.7 "/>
<polygon class="st4734" points="235,490.7 235,488.1 232.7,486.8 230.5,488.1 230.5,490.7 232.7,492 "/>
<polygon class="st4734" points="121.6,582.2 121.6,586.8 125.6,589.1 129.5,586.8 129.5,582.2 125.6,580 "/>
<polygon class="st4734" points="155.8,549.7 155.8,552.3 158.1,553.6 160.4,552.3 160.4,549.7 158.1,548.4 "/>
<polygon class="st4734" points="381.4,386.5 381.4,391.1 385.3,393.4 389.2,391.1 389.2,386.5 385.3,384.3 "/>
<polygon class="st4735" points="369,36.8 369,36.8 30.9,232.1 30.9,622.5 369,817.7 707.1,622.5 707.1,232.1 "/>
<g class="st4731">
	<path class="st4732" d="M210,288.5c0-10.1-0.2-18.8-0.7-26.8h12.9l0.5,16.9h0.7c3.7-11.6,12.6-18.8,22.5-18.8
		c1.4,0,2.8,0.2,4.2,0.5V275c-1.6-0.4-3.3-0.6-5-0.5c-10.4,0-17.8,8.4-19.8,20.1c-0.4,2.4-0.6,4.8-0.7,7.3v45.9H210V288.5z"/>
	<path class="st4732" d="M262.1,221.5h14.8v126.2h-14.8V221.5z"/>
	<path class="st4732" d="M343.3,347.7l-1.2-10.8h-0.5c-5.6,8.1-14.9,12.9-24.8,12.8c-16.4,0-24.8-12.3-24.8-24.7
		c0-20.8,17.4-32.2,48.8-32v-1.8c0-7.1-1.8-19.9-18.5-19.9c-7.5,0-14.9,2.3-21.1,6.4l-3.4-10.3c6.7-4.6,16.4-7.6,26.7-7.6
		c24.8,0,30.9,18,30.9,35.2v32.2c-0.1,6.9,0.3,13.8,1.3,20.6L343.3,347.7z M341.1,303.8c-16.1-0.4-34.4,2.7-34.4,19.4
		c0,10.1,6.4,14.9,13.9,14.9c9,0.1,17-5.8,19.6-14.4c0.5-1.6,0.8-3.3,0.8-5V303.8z"/>
	<path class="st4732" d="M375.8,285c0-8.9-0.2-16.2-0.7-23.3h13.1l0.8,14.2h0.3c5.1-10.1,15.5-16.3,26.8-16.2
		c11.2,0,28.7,7.1,28.7,36.6v51.4h-14.7v-49.6c0-13.9-4.9-25.4-18.8-25.4c-9.7,0-17.3,7.3-19.8,16c-0.7,2.4-1,4.8-1,7.3v51.7h-14.8
		V285z"/>
	<path class="st4732" d="M535.5,261.7c-0.3,6.2-0.7,13.2-0.7,23.6v50c0,19.7-3.7,31.8-11.6,39.3c-7.9,7.8-19.3,10.3-29.5,10.3
		c-9.7,0-20.5-2.5-27-7.1l3.7-11.9c7.1,4.5,15.4,6.8,23.8,6.8c15.1,0,26.2-8.4,26.2-30V333H520c-4.5,8-13.2,14.4-25.8,14.4
		c-20.1,0-34.5-18.1-34.5-42c0-29.1,17.9-45.7,36.6-45.7c14.1,0,21.8,7.8,25.3,14.9h0.3l0.7-13L535.5,261.7z M520.2,295.6
		c0.1-2.4-0.2-4.8-0.8-7.1c-2.7-9.1-9.9-16.5-20.6-16.5c-14.1,0-24.2,12.6-24.2,32.5c0,16.9,8.1,30.9,24,30.9c9,0,17.3-6,20.5-16
		c0.8-2.7,1.2-5.5,1.2-8.4L520.2,295.6z"/>
</g>
<!--
<path class="st4736" d="M707.1,197.2L429.3,36.8L369,2l-60.3,34.8L30.9,197.2L1.6,214.1v424.3l29.3,16.9l281.3,162.4l56.9,32.8
	l56.9-32.8l281.3-162.4l29.3-16.9V214.1L707.1,197.2z M369,817.7L30.9,622.5V232.1L369,36.8l0,0l338.1,195.2v390.4L369,817.7z"/>
-->
<path class="st4736" d="M707.1,197.2L429.3,36.8L369,2l-60.3,34.8L30.9,197.2L1.6,214.1v424.3l29.3,16.9l281.3,162.4l56.9,32.8
	l56.9-32.8l281.3-162.4l29.3-16.9V214.1L707.1,197.2z M369,817.7L30.9,622.5V232.1L369,36.8l0,0l338.1,195.2v390.4L369,817.7z"/>
</svg>
